HIERARCHY
ROOT pelvis
{
  OFFSET 0 100 0
  CHANNELS 6 Xposition Yposition Zposition Zrotation Xrotation Yrotation
  JOINT pelvis_right_femur
  {
    OFFSET -10.78128 -3.44521 -0.5502486
    CHANNELS 3 Zrotation Xrotation Yrotation
    JOINT right_femur_tibia
    {
      OFFSET -0.8047443 -44.0398 -0.1307829
      CHANNELS 3 Zrotation Xrotation Yrotation
      JOINT right_tibia_foot
      {
        OFFSET 3.006224 -47.83518 -5
        CHANNELS 3 Zrotation Xrotation Yrotation
        End Site
        {
          OFFSET 0 -5 15
        }
      }
    }
  }
  JOINT pelvis_left_femur
  {
    OFFSET 10.78128 -3.44521 -0.5502486
    CHANNELS 3 Zrotation Xrotation Yrotation
    JOINT left_femur_tibia
    {
      OFFSET 0.8047443 -44.0398 -0.1307829
      CHANNELS 3 Zrotation Xrotation Yrotation
      JOINT left_tibia_foot
      {
        OFFSET -4.370144 -48.10324 -4.275266
        CHANNELS 3 Zrotation Xrotation Yrotation
        End Site
        {
          OFFSET 0 -5 15
        }
      }
    }
  }
  JOINT pelvis_spine1
  {
    OFFSET 0 6.468898 -3.129235
    CHANNELS 3 Zrotation Xrotation Yrotation
    JOINT spine1
    {
      OFFSET 0 23.15396 4.99043
      CHANNELS 3 Zrotation Xrotation Yrotation
      JOINT spine2
      {
        OFFSET 0 20.79997 -5.064912
        CHANNELS 3 Zrotation Xrotation Yrotation
        JOINT neck
        {
          OFFSET 0 14.38658 9.616178
          CHANNELS 3 Zrotation Xrotation Yrotation
          End Site
          {
            OFFSET 0 20 0
          }
        }
      }
      JOINT right_manubrium
      {
        OFFSET -5.722621 16.35077 3.967754
        CHANNELS 3 Zrotation Xrotation Yrotation
        JOINT right_clavicle
        {
          OFFSET -13.16364 1.694482 -4.693211
          CHANNELS 3 Zrotation Xrotation Yrotation
          JOINT right_humerus
          {
            OFFSET -28.5034 -0.3100689 -2.792744
            CHANNELS 3 Zrotation Xrotation Yrotation
            JOINT right_radius
            {
              OFFSET -25.15693 0.02248979 -1.271978
              CHANNELS 3 Zrotation Xrotation Yrotation
              End Site
              {
                OFFSET -15 0 0
              }
            }
          }
        }
      }
      JOINT left_manubrium
      {
        OFFSET 5.722621 16.35077 3.967754
        CHANNELS 3 Zrotation Xrotation Yrotation
        JOINT left_clavicle
        {
          OFFSET 13.16364 1.694482 -4.693211
          CHANNELS 3 Zrotation Xrotation Yrotation
          JOINT left_humerus
          {
            OFFSET 29.39168 -1.063119 -2.237045
            CHANNELS 3 Zrotation Xrotation Yrotation
            JOINT left_radius
            {
              OFFSET 24.59957 -0.9528479 0.9047498
              CHANNELS 3 Zrotation Xrotation Yrotation
              End Site
              {
                OFFSET 15 -0 -0
              }
            }
          }
        }
      }
    }
  }
}
MOTION
Frames: 7
Frame Time: 0.0416666666667
0 103.5113 0 2.66532 -2.63629 0.2685419 0.8696549 -10.53908 7.618324 -0 36.5107 -0 -4.927676 -18.70756 -3.584336 -8.007453 11.65644 -23.768 -0 4.269735 -0 8.366214 -15.32425 25.71709 -3.366518 -3.75421 5.654616 2.436559 10.08748 -7.839644 2.264491 21.36845 5.713218 2.546066 -25.91987 10.04656 5.960975 -21.0921 11.08886 86.01158 35.89314 -19.31491 -0 0 17.92643 -4.397477 7.368662 2.391112 5.990819 -19.80812 -1.289098 -95.21533 26.85763 24.3782 0 0 -15.58267 10.79958 17.35989 3.258263
0.2857491 103.3105 1.353551 1.983939 -1.343884 0.3263795 1.850919 -13.47734 8.270416 -0 36.9995 -0 -4.742826 -18.28753 -3.424589 -7.660431 11.41947 -23.91049 -0 4.205859 -0 7.194285 -16.55756 25.59912 -3.269245 -3.712895 5.564081 2.504419 10.0528 -7.909095 2.216947 21.30297 5.772315 2.584107 -25.96094 10.01335 5.96824 -20.92788 11.11553 86.05199 35.71171 -19.47251 -0 0 17.7653 -4.522439 7.46618 2.437311 6.051997 -19.89547 -1.196303 -95.17774 26.75632 24.23047 0 0 -15.50979 10.63703 17.34835 3.299704
0.538569 103.0981 2.885058 1.035375 -0.5089682 0.3857555 3.053178 -17.19407 7.987999 -0 36.38243 -0 -5.468202 -16.42528 -3.135422 -6.998737 11.41182 -23.43933 -0 4.503253 -0 5.173645 -18.43803 24.83384 -2.539799 -2.999297 5.095596 2.844183 9.882709 -8.171786 1.822108 20.68306 6.42412 2.981481 -26.36476 9.906229 5.863483 -19.97906 11.27781 86.73567 35.86775 -20.54392 -0 0 15.81343 -5.121798 8.193439 3.146639 6.290134 -20.49737 -1.289863 -93.62506 25.94376 22.50975 0 0 -18.23191 10.56798 15.56367 3.176536
0.7808263 102.832 4.628875 0.2132852 0.3965985 0.4267271 4.336077 -21.1279 8.025324 -0 34.80805 -0 -5.855902 -14.5527 -2.983884 -6.471854 11.3893 -22.6964 -0 4.812622 -0 4.276878 -19.92464 24.29942 -2.194466 -2.696123 4.879111 2.978534 9.819143 -8.310825 1.654832 20.43093 6.677612 3.157714 -26.47048 9.808105 5.837742 -19.52284 11.35201 87.05579 35.78357 -21.08808 -0 0 14.99167 -5.42705 8.517287 3.423841 6.380569 -20.77978 -1.323244 -93.08659 25.75539 21.85337 0 0 -19.22616 10.22456 14.90599 3.445406
1.028558 102.3833 6.719014 -0.3933957 1.090051 0.468235 5.321335 -25.10228 7.418554 -0 31.2911 -0 -6.345594 -12.14655 -2.681535 -6.108568 11.59854 -21.45956 -0 5.160707 -0 4.087808 -21.2781 23.58782 -1.927744 -2.460892 4.731952 3.058558 9.783062 -8.414542 1.532238 20.24507 6.858587 3.29466 -26.51563 9.715447 5.818044 -19.19443 11.40547 87.33377 35.73356 -21.53768 -0 0 14.37738 -5.644519 8.757555 3.622934 6.42809 -20.99953 -1.395433 -92.69423 25.73415 21.40104 0 0 -20.07676 9.853041 14.38886 3.828001
1.288998 101.7041 9.23425 -0.7617262 1.82037 0.5496094 5.963266 -28.86516 6.58126 -0 26.55194 -0 -6.62845 -9.749646 -2.306305 -5.952147 11.99768 -20.10283 -0 5.551478 -0 4.290773 -22.47719 22.75648 -1.728062 -2.292317 4.63652 3.101339 9.763654 -8.492973 1.445681 20.11456 6.980176 3.396535 -26.51984 9.631032 5.806273 -18.96748 11.44279 87.5591 35.68931 -21.89951 -0 0 13.95373 -5.794631 8.930074 3.752227 6.450228 -21.16611 -1.474002 -92.44399 25.82786 21.12554 0 0 -20.73377 9.466951 14.02442 4.270585
1.558675 100.7844 12.27274 -0.9123088 2.526922 0.7307641 6.206837 -32.11763 5.453036 -0 21.11411 -0 -6.813304 -7.303109 -1.826982 -5.959704 12.67257 -18.71282 -0 6.249811 -0 4.52536 -23.42497 21.66939 -1.555816 -2.147265 4.562495 3.127435 9.752692 -8.561824 1.372022 20.00214 7.081961 3.487142 -26.50455 9.548905 5.793869 -18.78352 11.47359 87.77613 35.66459 -22.2357 -0 0 13.5947 -5.927593 9.084861 3.861507 6.464488 -21.31824 -1.565809 -92.22389 25.96264 20.89843 0 0 -21.37125 9.086707 13.69495 4.735682
